<?xml version="1.0" standalone="no"?>
<!DOCTYPE svg PUBLIC "-//W3C//DTD SVG 20010904//EN"
 "http://www.w3.org/TR/2001/REC-SVG-20010904/DTD/svg10.dtd">
<svg version="1.0" xmlns="http://www.w3.org/2000/svg"
 width="270.000000pt" height="270.000000pt" viewBox="0 0 270.000000 270.000000"
 preserveAspectRatio="xMidYMid meet">
<metadata>
Created by potrace 1.11, written by Peter Selinger 2001-2013
</metadata>
<g transform="translate(0.000000,270.000000) scale(0.100000,-0.100000)"
fill="#000000" stroke="none">
<path d="M1182 2679 c-220 -56 -404 -227 -473 -439 -12 -36 -23 -67 -25 -69
-2 -2 -16 -5 -31 -7 -15 -1 -44 -6 -63 -10 -19 -4 -41 -8 -48 -10 -7 -1 -40
-16 -75 -32 -191 -90 -307 -280 -301 -492 4 -143 53 -259 156 -361 96 -96 204
-145 338 -154 41 -3 75 -7 76 -8 2 -3 41 -212 40 -214 -1 -1 -44 -4 -96 -7
-203 -12 -296 -42 -335 -110 -70 -122 -80 -341 -24 -531 33 -111 62 -159 106
-178 88 -38 165 -50 323 -51 154 -1 156 -1 221 30 117 56 204 163 249 309 50
160 57 170 113 181 36 7 86 -16 101 -45 8 -15 22 -56 31 -91 40 -161 141 -296
265 -354 60 -29 74 -31 185 -33 137 -2 297 22 362 55 29 15 46 34 60 64 55
117 77 223 77 373 0 119 -13 185 -53 263 -36 70 -137 106 -331 117 -58 4 -105
7 -106 8 -1 1 8 50 19 110 l21 107 46 1 c25 0 54 2 65 4 11 2 36 7 55 10 125
23 286 151 348 278 58 116 72 271 38 388 -61 205 -251 362 -461 382 -38 4 -41
6 -55 53 -73 233 -251 404 -482 463 -98 25 -240 25 -336 0z m307 -136 c192
-53 339 -206 385 -401 18 -76 16 -67 16 -98 l0 -25 71 6 c123 11 233 -28 319
-115 164 -163 153 -421 -25 -577 -65 -58 -140 -86 -241 -89 -45 -2 -98 2 -118
8 -20 6 -38 9 -40 7 -2 -2 -7 -21 -10 -43 -4 -21 -8 -41 -10 -45 -2 -3 -7 -30
-11 -60 -4 -30 -11 -65 -16 -78 -5 -14 -9 -34 -9 -46 0 -12 -5 -39 -11 -59
l-10 -38 -105 0 -105 0 6 98 c4 53 9 104 10 112 2 9 6 64 10 123 l7 107 -38 1
c-22 0 -51 3 -66 5 -16 3 -28 1 -29 -3 0 -4 -2 -15 -4 -23 -2 -14 -8 -75 -21
-247 -3 -39 -7 -84 -9 -100 -2 -15 -4 -38 -4 -50 -1 -22 -5 -23 -81 -23 -76 0
-80 1 -81 23 -2 35 -6 78 -12 137 -4 30 -9 94 -13 141 -3 47 -7 95 -9 105 -2
10 -4 23 -4 27 -1 4 -20 6 -43 3 -24 -3 -56 -5 -71 -5 -16 -1 -26 -4 -24 -8 3
-5 8 -46 11 -93 4 -47 8 -103 10 -125 2 -22 7 -77 11 -123 l7 -83 -109 3 c-63
2 -108 7 -109 13 0 6 -3 24 -7 40 -4 17 -9 41 -12 55 -2 14 -14 78 -27 143
l-22 118 -41 -8 c-22 -4 -78 -8 -125 -7 -72 0 -94 5 -145 29 -149 72 -238 215
-230 372 8 161 87 278 235 346 59 28 74 31 168 30 l102 0 1 26 c6 203 152 403
349 479 100 38 225 44 329 15z m-537 -1773 c142 -35 210 -109 212 -233 1 -34
-2 -77 -7 -96 -5 -18 -10 -43 -13 -55 -8 -46 -76 -164 -116 -204 -23 -24 -68
-55 -98 -70 -52 -25 -63 -27 -190 -26 -209 1 -305 41 -331 137 -34 124 -44
326 -20 414 22 80 86 125 200 140 20 3 37 6 39 8 12 11 267 0 324 -15z m1173
7 c91 -23 113 -33 141 -61 18 -18 38 -52 45 -77 14 -49 17 -215 6 -299 -30
-208 -85 -248 -352 -255 -102 -3 -128 -1 -172 16 -107 41 -204 162 -238 295
-42 167 -13 277 88 335 78 44 158 58 317 54 80 -1 154 -5 165 -8z m-635 -67
c-41 -51 -77 -70 -135 -70 -63 0 -106 20 -144 69 l-33 41 172 0 172 0 -32 -40z"/>
</g>
</svg>
